<svg width="319" height="210" viewBox="0 0 319 210" fill="none" xmlns="http://www.w3.org/2000/svg">
<rect x="2" y="207.018" width="205" height="315" rx="10" transform="rotate(-90 2 207.018)" stroke="black" stroke-width="4" stroke-dasharray="6 6"/>
<path d="M2 186.777L2 192.779L2 197.281C2 202.534 4.70802 207.036 10.382 207.036C16.0559 207.036 19.6236 207.036 20.6982 207.036" stroke="black" stroke-width="4"/>
<path d="M317 22.259L317 16.2563L317 11.7543C317 6.502 314.292 2 308.618 2C302.944 2 299.376 2 298.302 2" stroke="black" stroke-width="4"/>
<path d="M19.7633 2L14.5001 2L10.5527 2C5.9474 2 2 5.08848 2 11.5596C2 18.0307 2 22.0997 2 23.3253" stroke="black" stroke-width="4"/>
<path d="M299.237 207.036L304.5 207.036L308.447 207.036C313.053 207.036 317 203.947 317 197.476C317 191.005 317 186.936 317 185.71" stroke="black" stroke-width="4"/>
</svg>
